<?xml version="1.0" encoding="UTF-8"?>
<svg width="18px" height="18px" viewBox="0 0 18 18" version="1.1" xmlns="http://www.w3.org/2000/svg" xmlns:xlink="http://www.w3.org/1999/xlink">
    <!-- Generator: Sketch 51.3 (57544) - http://www.bohemiancoding.com/sketch -->
    <title>Fill 3 Copy 2</title>
    <desc>Created with Sketch.</desc>
    <defs></defs>
    <g id="Symbols" stroke="none" stroke-width="1" fill="none" fill-rule="evenodd">
        <g id="Components/Quantity-Editor/icon/Add" transform="translate(-3.000000, -3.000000)" fill="#42B549">
            <path d="M15.75,13.25 L13.25,13.25 L13.25,15.75 C13.25,16.438 12.687,17 12,17 C11.313,17 10.75,16.438 10.75,15.75 L10.75,13.25 L8.25,13.25 C7.562,13.25 7,12.688 7,12 C7,11.313 7.562,10.75 8.25,10.75 L10.75,10.75 L10.75,8.25 C10.75,7.563 11.313,7 12,7 C12.687,7 13.25,7.563 13.25,8.25 L13.25,10.75 L15.75,10.75 C16.437,10.75 17,11.313 17,12 C17,12.688 16.437,13.25 15.75,13.25 M12,3 C7.029,3 3,7.029 3,12 C3,16.971 7.029,21 12,21 C16.971,21 21,16.971 21,12 C21,7.029 16.971,3 12,3" id="Fill-3-Copy-2"></path>
        </g>
    </g>
</svg>