<svg viewBox="0 0 24 24" xmlns="http://www.w3.org/2000/svg"><path d="M20 11.498A6.5 6.5 0 0 0 11.174 19H6a2 2 0 0 1-2-2V8a2 2 0 0 1-2-2V5a2 2 0 0 1 2-2h16a2 2 0 0 1 2 2v1a2 2 0 0 1-2 2v3.498zM10 8v1a2 2 0 1 0 4 0V8h-4zm7.5 14a4.5 4.5 0 1 1 0-9 4.5 4.5 0 0 1 0 9zm-.307-2.86l2.639-2.644a.579.579 0 0 0 0-.816l-.05-.05a.577.577 0 0 0-.815 0l-.887.89-1.295 1.298-.75-.747a.58.58 0 0 0-.817.001l-.05.05a.577.577 0 0 0 0 .815l1.208 1.204a.578.578 0 0 0 .817-.001z" fill="#7A08C9" fill-rule="evenodd"/></svg>