<svg viewBox="0 0 20 20" xmlns="http://www.w3.org/2000/svg" xmlns:xlink="http://www.w3.org/1999/xlink"><defs><path id="a" d="M8.9 8.6c0 .308-.225.5-.625.5h-.767V8.092h.767c.383 0 .625.166.625.491v.018zm3.475.317c.375 0 .667.308.667.733v.009c0 .441-.292.74-.667.74-.367 0-.658-.307-.658-.74V9.65c0-.425.291-.733.658-.733zm1.792.742v-.017c0-1.033-.667-1.683-1.442-1.683-.483 0-.767.241-.983.508v-.434H10.6v4.217h1.142v-1.358c.208.242.5.467.991.467.767 0 1.434-.642 1.434-1.7zm-5.3 1.625h1.341l-1-1.467c.525-.217.867-.65.867-1.293v-.007c0-.417-.125-.742-.375-.983-.283-.284-.725-.459-1.367-.459H6.342v4.209h1.166v-1.275h.509l.85 1.275zm7.8-6.984c.883 0 1.666.709 1.666 1.667v8.15c0 .717-.458 1.35-1.141 1.583-1.975.65-4.1.717-6.109.175l-3.175-.85a6.343 6.343 0 0 0-3.966.225 1.664 1.664 0 0 1-2.275-1.55V5.607c0-.683.416-1.292 1.041-1.541a9.975 9.975 0 0 1 3.742-.733c.867 0 1.733.115 2.583.341l3.125.834a7.065 7.065 0 0 0 3.984-.125c.175-.06.35-.084.525-.084z"/></defs><g fill="none" fill-rule="evenodd"><path d="M0 0h20v20H0z"/><use fill="#7A08C9" fill-rule="nonzero" xlink:href="#a"/></g></svg>