<svg xmlns="http://www.w3.org/2000/svg" xmlns:xlink="http://www.w3.org/1999/xlink" width="24" height="24" viewBox="0 0 24 24"><defs><path id="a" d="M12.5 9c.945 0 1.814-.329 2.5-.88.686.551 1.555.88 2.5.88.171 0 .334-.029.5-.05V16a2 2 0 0 1-2 2h-3v-4a2 2 0 0 0-2-2H9a2 2 0 0 0-2 2v4H4a2 2 0 0 1-2-2V8.95c.166.021.329.05.5.05.945 0 1.814-.329 2.5-.88.686.551 1.555.88 2.5.88.945 0 1.814-.329 2.5-.88.686.551 1.555.88 2.5.88zm7.05-4.75L20 5a2.5 2.5 0 0 1-2.5 2.5c-.558 0-1.07-.189-1.486-.5A2.49 2.49 0 0 1 15 5a2.49 2.49 0 0 1-1.013 2c-.416.311-.928.5-1.487.5-.558 0-1.07-.189-1.486-.5A2.49 2.49 0 0 1 10 5a2.49 2.49 0 0 1-1.013 2c-.416.311-.928.5-1.487.5-.558 0-1.07-.189-1.486-.5A2.49 2.49 0 0 1 5 5a2.49 2.49 0 0 1-1.013 2A2.473 2.473 0 0 1 2 7.449 2.5 2.5 0 0 1 0 5l.45-.75.45-.75L3 0h14l2.1 3.5.45.75z"/></defs><g fill="none" fill-rule="evenodd"><path d="M0 0h24v24H0z"/><g transform="translate(2 3)"><mask id="b" fill="#fff"><use xlink:href="#a"/></mask><use fill="#9FA6B0" xlink:href="#a"/><g fill="#03AC0E" fill-rule="nonzero" mask="url(#b)"><path d="M-2-3h24v24H-2z"/></g></g></g></svg>