<svg xmlns="http://www.w3.org/2000/svg" xmlns:xlink="http://www.w3.org/1999/xlink" width="24" height="24" viewBox="0 0 24 24"><defs><path id="a" d="M0 0h20v3.917H0z"/><path id="c" d="M0 .042h18V10H0z"/></defs><g fill="none" fill-rule="evenodd"><path d="M0 0h24v24H0z"/><g transform="translate(2 4)"><mask id="b" fill="#fff"><use xlink:href="#a"/></mask><path fill="#9FA6B0" d="M.573 3.917h18.854C19.762 3.764 20 3.41 20 3V1c0-.55-.426-1-.948-1H.947C.427 0 0 .45 0 1v2c0 .409.237.763.573.916" mask="url(#b)"/></g><g transform="translate(3 10)"><mask id="d" fill="#fff"><use xlink:href="#c"/></mask><path fill="#9FA6B0" d="M12 .042c0 1.1-.9 2-2 2H8c-1.1 0-2-.9-2-2H0v8.194C0 9.207.848 10 1.88 10h14.24C17.155 10 18 9.207 18 8.236V.041h-6z" mask="url(#d)"/></g></g></svg>